HIERARCHY
ROOT Hips
{
	OFFSET 0.000000 71.427986 0.000000
	CHANNELS 6 Xposition Yposition Zposition Xrotation Yrotation Zrotation
	JOINT Pelvis
	{
		OFFSET 0.000000 0.000000 0.000000
		CHANNELS 3 Xrotation Yrotation Zrotation
		JOINT LeftUpLeg
		{
			OFFSET 6.797100 -2.508499 -1.318700
			CHANNELS 3 Xrotation Yrotation Zrotation
			JOINT LeftLeg
			{
				OFFSET 0.069008 -29.241863 0.690200
				CHANNELS 3 Xrotation Yrotation Zrotation
				JOINT LeftFoot
				{
					OFFSET -0.069008 -29.568123 -0.266800
					CHANNELS 3 Xrotation Yrotation Zrotation
					JOINT LeftToeBase
					{
						OFFSET 3.145500 -8.631000 16.059900
						CHANNELS 3 Xrotation Yrotation Zrotation
						End Site
						{
							OFFSET 0.000000 18.501587 0.000000
						}
					}
				}
			}
			JOINT Left_ShortSleeve
			{
				OFFSET 0.265923 -10.480953 1.153800
				CHANNELS 3 Xrotation Yrotation Zrotation
				End Site
				{
					OFFSET 1.725763 19.823879 0.000000
				}
			}
		}
		JOINT RightUpLeg
		{
			OFFSET -6.797100 -2.508499 -1.318700
			CHANNELS 3 Xrotation Yrotation Zrotation
			JOINT RightLeg
			{
				OFFSET -0.082453 -29.241932 0.688000
				CHANNELS 3 Xrotation Yrotation Zrotation
				JOINT RightFoot
				{
					OFFSET 0.082453 -29.568058 -0.264600
					CHANNELS 3 Xrotation Yrotation Zrotation
					JOINT RightToeBase
					{
						OFFSET -3.115300 -8.682800 16.113400
						CHANNELS 3 Xrotation Yrotation Zrotation
						End Site
						{
							OFFSET 0.000000 18.567114 0.000000
						}
					}
				}
			}
			JOINT Right_ShortSleeve
			{
				OFFSET -0.265923 -10.480953 1.153800
				CHANNELS 3 Xrotation Yrotation Zrotation
				End Site
				{
					OFFSET -1.725766 19.823910 0.000000
				}
			}
		}
	}
	JOINT Spine
	{
		OFFSET 0.000000 13.368103 0.470500
		CHANNELS 3 Xrotation Yrotation Zrotation
		JOINT Spine1
		{
			OFFSET 0.147000 13.837402 0.538800
			CHANNELS 3 Xrotation Yrotation Zrotation
			JOINT Spine2
			{
				OFFSET 0.168000 16.242897 -1.435500
				CHANNELS 3 Xrotation Yrotation Zrotation
				JOINT Neck
				{
					OFFSET 0.217200 18.631500 -1.679100
					CHANNELS 3 Xrotation Yrotation Zrotation
					JOINT Head
					{
						OFFSET 0.000000 6.599396 1.385900
						CHANNELS 3 Xrotation Yrotation Zrotation
						JOINT Hat
						{
							OFFSET -0.532200 27.220596 -10.096100
							CHANNELS 3 Xrotation Yrotation Zrotation
							End Site
							{
								OFFSET 0.000000 22.029861 0.000000
							}
						}
						JOINT HairD
						{
							OFFSET -10.777400 17.437393 -1.325900
							CHANNELS 3 Xrotation Yrotation Zrotation
							JOINT HairD1
							{
								OFFSET -3.290299 -11.051193 1.062200
								CHANNELS 3 Xrotation Yrotation Zrotation
								End Site
								{
									OFFSET 0.000000 11.579437 0.000000
								}
							}
						}
						JOINT HairB
						{
							OFFSET -10.777400 17.437393 1.467900
							CHANNELS 3 Xrotation Yrotation Zrotation
							JOINT HairB1
							{
								OFFSET -1.561200 -12.956299 3.590200
								CHANNELS 3 Xrotation Yrotation Zrotation
								End Site
								{
									OFFSET 0.000000 13.534866 0.000000
								}
							}
						}
						JOINT HairA
						{
							OFFSET 9.713100 17.437393 1.467900
							CHANNELS 3 Xrotation Yrotation Zrotation
							JOINT HairA1
							{
								OFFSET 1.561200 -12.956299 3.590200
								CHANNELS 3 Xrotation Yrotation Zrotation
								End Site
								{
									OFFSET 0.000000 13.534866 0.000000
								}
							}
						}
						JOINT HairC
						{
							OFFSET 9.713100 17.437393 -1.325900
							CHANNELS 3 Xrotation Yrotation Zrotation
							JOINT HairC1
							{
								OFFSET 3.290300 -11.051193 1.062200
								CHANNELS 3 Xrotation Yrotation Zrotation
								End Site
								{
									OFFSET 0.000000 11.579437 0.000000
								}
							}
						}
					}
				}
				JOINT LeftShoulder
				{
					OFFSET 5.101800 15.108002 -2.763700
					CHANNELS 3 Xrotation Yrotation Zrotation
					JOINT LeftArm
					{
						OFFSET 9.825497 2.506317 -1.597400
						CHANNELS 3 Xrotation Yrotation Zrotation
						JOINT LeftForeArm
						{
							OFFSET 21.966244 0.000000 0.000000
							CHANNELS 3 Xrotation Yrotation Zrotation
							JOINT LeftHand
							{
								OFFSET 33.879036 0.000000 0.000000
								CHANNELS 3 Xrotation Yrotation Zrotation
								JOINT LeftHandThumb1
								{
									OFFSET 6.715286 -2.359680 3.363841
									CHANNELS 3 Xrotation Yrotation Zrotation
									JOINT LeftHandThumb2
									{
										OFFSET 2.507072 -1.447464 1.447461
										CHANNELS 3 Xrotation Yrotation Zrotation
										JOINT LeftHandThumb3
										{
											OFFSET 2.898338 -1.673355 1.673357
											CHANNELS 3 Xrotation Yrotation Zrotation
											End Site
											{
												OFFSET -0.295959 3.727692 -0.131651
											}
										}
									}
								}
								JOINT LeftHandIndex1
								{
									OFFSET 14.190811 -0.254547 3.840278
									CHANNELS 3 Xrotation Yrotation Zrotation
									JOINT LeftHandIndex2
									{
										OFFSET 3.551727 0.000000 -0.000000
										CHANNELS 3 Xrotation Yrotation Zrotation
										JOINT LeftHandIndex3
										{
											OFFSET 2.894196 0.000000 0.000000
											CHANNELS 3 Xrotation Yrotation Zrotation
											End Site
											{
												OFFSET -1.000603 2.690872 0.366626
											}
										}
									}
								}
								JOINT LeftHandMiddle1
								{
									OFFSET 13.776489 0.000000 0.000000
									CHANNELS 3 Xrotation Yrotation Zrotation
									JOINT LeftHandMiddle2
									{
										OFFSET 3.438232 0.000000 0.000000
										CHANNELS 3 Xrotation Yrotation Zrotation
										JOINT LeftHandMiddle3
										{
											OFFSET 3.691551 0.000000 0.000000
											CHANNELS 3 Xrotation Yrotation Zrotation
											End Site
											{
												OFFSET -1.082298 3.499527 0.457670
											}
										}
									}
								}
								JOINT LeftHandRing1
								{
									OFFSET 13.966164 -0.268127 -3.067488
									CHANNELS 3 Xrotation Yrotation Zrotation
									JOINT LeftHandRing2
									{
										OFFSET 3.162567 0.000000 0.000000
										CHANNELS 3 Xrotation Yrotation Zrotation
										JOINT LeftHandRing3
										{
											OFFSET 3.324348 0.000000 0.000000
											CHANNELS 3 Xrotation Yrotation Zrotation
											End Site
											{
												OFFSET -0.861900 3.184998 0.405154
											}
										}
									}
								}
								JOINT LeftHandPinky1
								{
									OFFSET 13.131393 -0.168503 -5.746925
									CHANNELS 3 Xrotation Yrotation Zrotation
									JOINT LeftHandPinky2
									{
										OFFSET 2.849182 0.000000 0.000000
										CHANNELS 3 Xrotation Yrotation Zrotation
										JOINT LeftHandPinky3
										{
											OFFSET 2.805038 0.000000 0.000000
											CHANNELS 3 Xrotation Yrotation Zrotation
											End Site
											{
												OFFSET -0.882500 2.642609 0.325652
											}
										}
									}
								}
							}
							JOINT Left_Sleeve
							{
								OFFSET 6.592125 -0.646545 0.805568
								CHANNELS 3 Xrotation Yrotation Zrotation
								End Site
								{
									OFFSET -0.000179 20.275787 -0.000000
								}
							}
						}
					}
				}
				JOINT RightShoulder
				{
					OFFSET -5.731700 15.108002 -2.763700
					CHANNELS 3 Xrotation Yrotation Zrotation
					JOINT RightArm
					{
						OFFSET -9.825497 2.506317 -1.597400
						CHANNELS 3 Xrotation Yrotation Zrotation
						JOINT RightForeArm
						{
							OFFSET -21.966242 0.000000 0.000000
							CHANNELS 3 Xrotation Yrotation Zrotation
							JOINT RightHand
							{
								OFFSET -33.879032 0.000000 0.000000
								CHANNELS 3 Xrotation Yrotation Zrotation
								JOINT RightHandThumb1
								{
									OFFSET -6.715286 -2.359680 3.363841
									CHANNELS 3 Xrotation Yrotation Zrotation
									JOINT RightHandThumb2
									{
										OFFSET -2.507072 -1.447464 1.447461
										CHANNELS 3 Xrotation Yrotation Zrotation
										JOINT RightHandThumb3
										{
											OFFSET -2.898338 -1.673355 1.673357
											CHANNELS 3 Xrotation Yrotation Zrotation
											End Site
											{
												OFFSET 0.295959 3.727692 -0.131651
											}
										}
									}
								}
								JOINT RightHandIndex1
								{
									OFFSET -14.190811 -0.254547 3.840278
									CHANNELS 3 Xrotation Yrotation Zrotation
									JOINT RightHandIndex2
									{
										OFFSET -3.551727 0.000000 -0.000000
										CHANNELS 3 Xrotation Yrotation Zrotation
										JOINT RightHandIndex3
										{
											OFFSET -2.894196 0.000000 0.000000
											CHANNELS 3 Xrotation Yrotation Zrotation
											End Site
											{
												OFFSET 1.000603 2.690872 0.366626
											}
										}
									}
								}
								JOINT RightHandMiddle1
								{
									OFFSET -13.776489 0.000000 0.000000
									CHANNELS 3 Xrotation Yrotation Zrotation
									JOINT RightHandMiddle2
									{
										OFFSET -3.438232 0.000000 0.000000
										CHANNELS 3 Xrotation Yrotation Zrotation
										JOINT RightHandMiddle3
										{
											OFFSET -3.691551 0.000000 0.000000
											CHANNELS 3 Xrotation Yrotation Zrotation
											End Site
											{
												OFFSET 1.082298 3.499527 0.457670
											}
										}
									}
								}
								JOINT RightHandRing1
								{
									OFFSET -13.966164 -0.268127 -3.067488
									CHANNELS 3 Xrotation Yrotation Zrotation
									JOINT RightHandRing2
									{
										OFFSET -3.162567 0.000000 0.000000
										CHANNELS 3 Xrotation Yrotation Zrotation
										JOINT RightHandRing3
										{
											OFFSET -3.324348 0.000000 0.000000
											CHANNELS 3 Xrotation Yrotation Zrotation
											End Site
											{
												OFFSET 0.861900 3.184998 0.405154
											}
										}
									}
								}
								JOINT RightHandPinky1
								{
									OFFSET -13.131393 -0.168503 -5.746925
									CHANNELS 3 Xrotation Yrotation Zrotation
									JOINT RightHandPinky2
									{
										OFFSET -2.849182 0.000000 0.000000
										CHANNELS 3 Xrotation Yrotation Zrotation
										JOINT RightHandPinky3
										{
											OFFSET -2.805038 0.000000 0.000000
											CHANNELS 3 Xrotation Yrotation Zrotation
											End Site
											{
												OFFSET 0.882500 2.642609 0.325652
											}
										}
									}
								}
							}
							JOINT Right_Sleeve
							{
								OFFSET -6.592125 -0.646545 0.805568
								CHANNELS 3 Xrotation Yrotation Zrotation
								End Site
								{
									OFFSET 0.000179 20.275787 -0.000000
								}
							}
						}
					}
				}
				JOINT Bind_Right_JacketString
				{
					OFFSET -3.534800 11.969597 7.200700
					CHANNELS 3 Xrotation Yrotation Zrotation
					JOINT Bind_Right_JacketString1
					{
						OFFSET -0.319900 -6.102600 2.794100
						CHANNELS 3 Xrotation Yrotation Zrotation
						End Site
						{
							OFFSET 0.000000 6.719452 0.000000
						}
					}
				}
				JOINT Bind_Left_JacketString
				{
					OFFSET 2.904800 11.969597 7.200700
					CHANNELS 3 Xrotation Yrotation Zrotation
					JOINT Bind_Left_JacketString1
					{
						OFFSET 0.364800 -5.904503 3.186800
						CHANNELS 3 Xrotation Yrotation Zrotation
						End Site
						{
							OFFSET 0.000000 6.719513 0.000000
						}
					}
				}
				JOINT HairE
				{
					OFFSET 5.915200 17.612701 -11.592200
					CHANNELS 3 Xrotation Yrotation Zrotation
					JOINT HairE1
					{
						OFFSET 0.289200 -7.171898 -1.284500
						CHANNELS 3 Xrotation Yrotation Zrotation
						End Site
						{
							OFFSET 0.000000 7.291756 0.000000
						}
					}
				}
				JOINT HairF
				{
					OFFSET -0.864800 17.612701 -11.592200
					CHANNELS 3 Xrotation Yrotation Zrotation
					JOINT HairF1
					{
						OFFSET 0.000000 -14.087097 -2.127501
						CHANNELS 3 Xrotation Yrotation Zrotation
						End Site
						{
							OFFSET 0.000000 14.246841 0.000000
						}
					}
				}
				JOINT HairG
				{
					OFFSET -8.087700 17.612701 -11.592200
					CHANNELS 3 Xrotation Yrotation Zrotation
					JOINT HairG1
					{
						OFFSET -0.293600 -6.081398 -0.910100
						CHANNELS 3 Xrotation Yrotation Zrotation
						End Site
						{
							OFFSET 0.000000 6.156120 0.000000
						}
					}
				}
			}
		}
	}
	JOINT Pouch
	{
		OFFSET 0.000000 4.394501 10.847300
		CHANNELS 3 Xrotation Yrotation Zrotation
		End Site
		{
			OFFSET 0.000000 21.880577 0.000000
		}
	}
	JOINT Bag
	{
		OFFSET -13.229000 4.813004 -0.593300
		CHANNELS 3 Xrotation Yrotation Zrotation
		End Site
		{
			OFFSET 0.000000 21.880577 0.000000
		}
	}
	JOINT OccupyGuyFacialAnim_Joint
	{
		OFFSET 1.000000 -70.206398 -1.655000
		CHANNELS 3 Xrotation Yrotation Zrotation
		End Site
		{
			OFFSET 0.000000 21.880577 0.000000
		}
	}
}
MOTION
Frames: 4
Frame Time: 0.016667
0.510176 78.506592 -2.187462 -92.610002 1.435596 4.444312 0.000000 0.000000 -0.000000 2.895117 15.789222 11.037430 0.532685 7.112114 4.098360 34.760226 28.982627 -29.816115 -0.000000 -0.000000 0.000001 -0.000000 -0.000001 -0.000000 -0.012298 -20.125576 -15.365556 0.545724 -6.064300 -7.295560 34.336597 -30.267215 30.563594 0.000001 0.000001 -0.000001 0.000000 -0.000002 -0.000000 4.271570 -0.731431 0.294810 5.662842 -1.787562 -1.408118 5.682631 -1.863436 -1.213450 -7.406078 -0.581397 1.811093 -13.802511 -2.716336 2.653905 -0.000001 0.000000 0.000000 -0.000001 0.000000 0.000000 -0.000001 0.000000 0.000000 -0.000001 0.000000 0.000000 -0.000000 0.000000 0.000000 -0.000001 0.000000 0.000000 -0.000000 0.000000 0.000000 -0.000001 0.000000 0.000000 -0.000001 0.000000 0.000000 0.833460 0.643752 -7.065389 35.730919 -29.399965 -39.106033 0.000824 -86.008734 0.000807 -14.794588 -4.980877 -2.151170 6.590538 -4.958657 16.122662 7.178858 21.567306 2.147296 0.000004 -0.000001 -0.000002 0.659512 4.932355 -26.024477 0.169786 1.401627 -13.813540 0.000001 0.000001 -0.000000 1.376913 6.461956 -24.994181 0.169881 1.401963 -13.817113 0.000002 0.000001 0.000001 2.098718 8.644282 -21.209682 0.169787 1.401612 -13.813549 -0.000002 0.000001 0.000001 2.123414 10.735866 -14.817564 0.167504 1.392252 -13.719337 0.000000 -0.000003 -0.000003 -0.000000 -0.000002 0.000004 1.050849 -2.047986 18.147304 -39.666108 52.653361 55.025889 0.000206 100.264827 -0.000225 -34.129950 33.547365 -4.808405 24.570579 30.236684 15.138933 9.301641 -39.834053 -3.735076 -0.000001 0.000002 -0.000000 -0.115181 -3.017711 29.162712 0.947782 -2.817923 37.173277 -0.000000 0.000001 0.000002 -2.076506 -3.537410 58.007813 2.575719 -4.167044 63.427445 0.000001 -0.000001 -0.000001 0.679044 -5.779013 70.144608 3.287915 -4.451774 72.883938 0.000002 0.000002 0.000000 3.720111 -6.826249 77.738379 3.738180 -4.565791 78.607145 -0.000002 0.000002 0.000001 -0.000001 -0.000002 -0.000000 -0.000001 -0.000000 -0.000000 -0.000001 -0.000000 -0.000000 -0.000001 -0.000000 0.000000 -0.000001 -0.000000 0.000000 -0.000001 -0.000000 -0.000000 -0.000001 -0.000000 -0.000000 -0.000001 -0.000000 0.000000 -0.000001 -0.000000 0.000000 -0.000001 -0.000000 -0.000000 -0.000001 -0.000000 -0.000000 0.000000 0.000000 -0.000000 0.000000 0.000000 -0.000000 0.000000 0.000000 -0.000000 
0.498977 78.513741 -2.277138 -92.822913 1.307873 4.432757 -0.000000 0.000000 0.000000 3.351265 15.960952 11.039090 0.606517 7.102631 4.182194 34.813638 29.669437 -30.364917 0.000001 0.000002 -0.000001 -0.000000 0.000001 -0.000000 0.071975 -20.368775 -15.480178 0.600425 -5.923595 -7.191612 34.664136 -30.262219 30.561436 -0.000000 0.000002 -0.000000 -0.000000 0.000001 -0.000001 4.233612 -0.723503 0.251752 5.577438 -1.781750 -1.434906 5.572884 -1.863084 -1.240883 -7.427392 -0.598161 1.870910 -14.412099 -2.797161 2.806449 -0.000001 0.000000 -0.000000 -0.000001 0.000000 -0.000000 -0.000001 0.000000 -0.000000 -0.000001 0.000000 -0.000000 -0.000000 0.000000 -0.000000 -0.000001 0.000000 -0.000000 -0.000000 0.000000 -0.000000 -0.000001 0.000000 -0.000000 -0.000001 0.000000 -0.000000 0.795814 0.368579 -6.754030 35.724331 -29.362631 -39.579085 -0.000311 -85.982287 -0.000286 -14.760406 -4.934444 -2.109632 6.590540 -4.958661 16.122658 7.178862 21.567309 2.147289 0.000001 0.000003 -0.000005 0.659519 4.932349 -26.024477 0.169787 1.401624 -13.813544 0.000001 0.000001 0.000002 1.376916 6.461955 -24.994184 0.169883 1.401965 -13.817115 -0.000001 -0.000003 0.000000 2.098721 8.644284 -21.209687 0.169788 1.401613 -13.813549 -0.000001 0.000003 -0.000002 2.123418 10.735867 -14.817573 0.167506 1.392246 -13.719343 -0.000003 0.000001 -0.000001 0.000003 0.000002 -0.000003 1.046859 -1.901966 17.705029 -41.695545 52.153245 56.287343 -0.000311 98.952147 0.000321 -34.567048 34.030130 -4.422401 24.570583 30.236694 15.138950 9.301606 -39.834029 -3.735106 -0.000000 -0.000001 0.000003 -0.115180 -3.017724 29.162719 0.947771 -2.817912 37.173267 0.000001 0.000001 0.000001 -2.076510 -3.537409 58.007827 2.575712 -4.167054 63.427438 0.000001 0.000002 -0.000006 0.679028 -5.779030 70.144595 3.287914 -4.451784 72.883938 0.000001 0.000003 0.000002 3.720106 -6.826268 77.738365 3.738185 -4.565792 78.607165 0.000001 0.000000 0.000002 -0.000000 -0.000002 0.000003 0.000001 -0.000000 -0.000000 0.000001 -0.000000 0.000000 0.000001 -0.000000 -0.000000 0.000001 -0.000000 -0.000000 0.000001 -0.000000 -0.000000 0.000001 -0.000000 0.000000 0.000001 -0.000000 -0.000000 0.000001 -0.000000 -0.000000 0.000001 -0.000000 -0.000000 0.000001 -0.000000 0.000000 -0.000000 0.000000 0.000000 -0.000000 0.000000 0.000000 -0.000000 0.000000 0.000000 
0.486588 78.515564 -2.325554 -92.969113 1.262474 4.416294 -0.000000 -0.000000 -0.000000 3.687074 16.023707 11.056871 0.730799 7.075536 4.265698 34.885765 30.032536 -30.671094 0.000000 0.000000 -0.000000 0.000000 -0.000001 -0.000001 0.165380 -20.553026 -15.587105 0.628314 -5.841335 -7.068611 35.007711 -30.257024 30.564041 -0.000001 -0.000001 0.000000 0.000000 -0.000001 -0.000001 4.227628 -0.707733 0.218717 5.498827 -1.756072 -1.456301 5.557743 -1.836371 -1.256271 -7.364453 -0.607704 1.904431 -14.429622 -2.818833 2.924229 0.000001 -0.000000 -0.000000 0.000001 -0.000000 -0.000000 0.000001 -0.000000 -0.000000 0.000001 -0.000000 -0.000000 0.000001 0.000000 -0.000000 0.000001 -0.000000 -0.000000 0.000001 0.000000 -0.000000 0.000001 -0.000000 -0.000000 0.000001 -0.000000 -0.000000 0.752569 0.149307 -6.556120 35.791680 -29.405593 -39.728468 0.000869 -85.965662 0.000781 -14.823939 -4.926964 -1.997083 6.590536 -4.958660 16.122662 7.178861 21.567306 2.147293 0.000004 -0.000000 -0.000001 0.659516 4.932355 -26.024474 0.169785 1.401625 -13.813540 0.000001 0.000001 0.000000 1.376912 6.461958 -24.994186 0.169881 1.401964 -13.817119 0.000001 0.000000 0.000004 2.098721 8.644285 -21.209684 0.169786 1.401614 -13.813547 0.000002 0.000001 -0.000002 2.123415 10.735866 -14.817571 0.167509 1.392247 -13.719343 -0.000002 -0.000003 0.000001 -0.000000 0.000005 -0.000000 1.031398 -1.759339 17.391861 -42.645171 51.582087 56.777109 -0.000222 97.838300 0.000220 -34.847086 34.643751 -3.962460 24.570567 30.236684 15.138938 9.301620 -39.834039 -3.735114 -0.000000 0.000000 -0.000000 -0.115166 -3.017708 29.162726 0.947772 -2.817915 37.173281 -0.000001 0.000000 0.000002 -2.076531 -3.537415 58.007827 2.575719 -4.167072 63.427438 0.000002 -0.000003 0.000002 0.679031 -5.779019 70.144602 3.287915 -4.451774 72.883938 -0.000000 0.000000 -0.000002 3.720091 -6.826259 77.738385 3.738188 -4.565800 78.607158 -0.000001 0.000001 0.000001 -0.000001 0.000001 0.000001 0.000001 0.000000 -0.000000 0.000002 0.000000 -0.000000 0.000001 0.000000 -0.000000 0.000001 0.000000 -0.000000 0.000001 0.000000 -0.000000 0.000002 0.000000 -0.000000 0.000001 0.000000 -0.000000 0.000001 0.000000 -0.000000 0.000001 0.000000 -0.000000 0.000002 0.000000 -0.000000 -0.000000 -0.000000 -0.000000 -0.000000 -0.000000 -0.000000 -0.000000 -0.000000 -0.000000 
0.470954 78.520737 -2.347633 -93.004644 1.193725 4.372718 0.000000 -0.000000 -0.000000 3.845942 16.020286 11.096986 0.912727 7.038832 4.351930 34.972915 30.031382 -30.660081 -0.000001 -0.000001 0.000001 -0.000001 0.000000 0.000000 0.210439 -20.638988 -15.589801 0.630015 -5.713418 -7.048072 35.366897 -30.254675 30.565086 -0.000002 0.000001 0.000000 -0.000000 0.000001 0.000000 4.238769 -0.690212 0.207773 5.508399 -1.714588 -1.460459 5.567319 -1.797903 -1.270685 -7.160168 -0.610770 1.930708 -13.898868 -2.777516 3.041224 -0.000001 -0.000000 0.000000 -0.000001 -0.000000 0.000000 -0.000001 -0.000000 0.000000 -0.000001 -0.000000 0.000000 0.000000 -0.000000 0.000000 -0.000001 -0.000000 0.000000 0.000000 -0.000000 0.000000 -0.000001 -0.000000 0.000000 -0.000001 -0.000000 0.000000 0.749793 0.216470 -6.485456 35.680396 -29.527434 -39.791757 -0.000062 -85.903467 0.000032 -14.753352 -4.901680 -2.106206 6.590537 -4.958655 16.122660 7.178857 21.567311 2.147297 0.000004 -0.000002 -0.000001 0.659518 4.932363 -26.024474 0.169787 1.401625 -13.813542 0.000001 0.000002 0.000000 1.376914 6.461960 -24.994183 0.169883 1.401962 -13.817118 -0.000001 0.000002 0.000001 2.098720 8.644283 -21.209684 0.169787 1.401613 -13.813547 -0.000000 0.000000 -0.000002 2.123413 10.735867 -14.817575 0.167503 1.392250 -13.719339 0.000001 0.000001 -0.000000 -0.000002 -0.000000 0.000005 1.021771 -1.623932 17.128494 -43.055392 51.175483 56.795301 -0.000080 96.870640 0.000087 -35.048006 35.074531 -3.705425 24.570574 30.236677 15.138926 9.301605 -39.834029 -3.735109 0.000000 0.000000 -0.000003 -0.115165 -3.017713 29.162726 0.947769 -2.817918 37.173267 -0.000001 -0.000003 0.000003 -2.076521 -3.537400 58.007827 2.575715 -4.167055 63.427432 0.000004 0.000003 0.000001 0.679034 -5.779022 70.144615 3.287906 -4.451754 72.883938 -0.000004 -0.000003 0.000001 3.720093 -6.826248 77.738365 3.738186 -4.565819 78.607158 -0.000000 -0.000001 0.000000 0.000000 0.000001 0.000001 0.000001 -0.000000 0.000000 0.000001 -0.000000 0.000000 0.000001 -0.000000 0.000000 0.000001 -0.000000 0.000000 0.000001 -0.000000 0.000000 0.000001 -0.000000 0.000000 0.000001 -0.000000 0.000000 0.000001 -0.000000 0.000000 0.000001 -0.000000 0.000000 0.000001 -0.000000 0.000000 0.000000 -0.000000 -0.000000 0.000000 -0.000000 -0.000000 0.000000 -0.000000 -0.000000 
